PathFileType	4	(X/Y/Z)	 s04c0201.trc
DataRate	CameraRate	NumFrames	NumMarkers	Units	OrigDataRate	OrigDataStartFrame	OrigNumFrames
200	200	4	51	mm	200	1501	2000
Frame#	Time	racr			lacr			c7			jug			rlel			rdr			llel			ldr			s2			lic			ric			lasi			rasi			rpsi			lpsi			rgt			lgt			rth1			rth2			rth3			rth4			rlfc			rmfc			rsh1			rsh2			rsh3			rsh4			rlmal			rmmal			rcal			rtoe			rmt5			lth1			lth2			lth4			lth3			llfc			lmfc			lsh1			lsh2			lsh3			lsh4			llmal			lmmal			lcal			ltoe			lmt1			lmt5			SBIKE			LBIKE			RBIKE			
		X1	Y1	Z1	X2	Y2	Z2	X3	Y3	Z3	X4	Y4	Z4	X5	Y5	Z5	X6	Y6	Z6	X7	Y7	Z7	X8	Y8	Z8	X9	Y9	Z9	X10	Y10	Z10	X11	Y11	Z11	X12	Y12	Z12	X13	Y13	Z13	X14	Y14	Z14	X15	Y15	Z15	X16	Y16	Z16	X17	Y17	Z17	X18	Y18	Z18	X19	Y19	Z19	X20	Y20	Z20	X21	Y21	Z21	X22	Y22	Z22	X23	Y23	Z23	X24	Y24	Z24	X25	Y25	Z25	X26	Y26	Z26	X27	Y27	Z27	X28	Y28	Z28	X29	Y29	Z29	X30	Y30	Z30	X31	Y31	Z31	X32	Y32	Z32	X33	Y33	Z33	X34	Y34	Z34	X35	Y35	Z35	X36	Y36	Z36	X37	Y37	Z37	X38	Y38	Z38	X39	Y39	Z39	X40	Y40	Z40	X41	Y41	Z41	X42	Y42	Z42	X43	Y43	Z43	X44	Y44	Z44	X45	Y45	Z45	X46	Y46	Z46	X47	Y47	Z47	X48	Y48	Z48	X49	Y49	Z49	X50	Y50	Z50	X51	Y51	Z51	
1501	7.5050	534.500816	1346.704282	-121.424678	522.802334	1367.002290	-398.651724	501.226601	1426.833352	-260.201721	473.487765	1287.323742	-250.344389	426.208203	1073.182439	31.928125	666.423500	944.577165	-74.683514	471.959411	1120.859936	-555.652891	685.350273	952.876995	-462.129675	-64.644354	1193.136184	-278.572078	93.364649	1217.064821	-431.101555	81.346097	1196.478331	-107.381444	131.555954	1172.023849	-383.135888	128.910101	1151.094490	-151.165631	-34.696572	1235.923801	-233.893332	-36.913080	1243.627571	-307.891998	31.518344	1138.676567	-97.424819	70.491643	1126.069908	-458.493265	132.085054	1006.522047	-70.877988	202.416149	952.525374	-68.927135	237.957389	874.685656	-66.341037	229.886079	974.006317	-83.639762	304.059246	744.500965	-80.620221	296.858465	729.357874	-195.590290	217.995105	645.856518	-66.374049	184.498352	566.909163	-88.975247	112.970015	520.878020	-105.307594	213.182027	550.796876	-109.454036	27.557736	396.229237	-124.608790	62.214498	393.706612	-205.674943	-40.747535	401.240606	-173.995334	204.449046	223.199562	-147.018833	130.602862	240.037645	-98.884873	139.747494	1062.388008	-457.484036	223.112069	1039.800021	-450.702678	239.984541	1070.826686	-440.414878	285.771599	977.050990	-444.856413	407.002161	875.634513	-410.699978	425.168356	851.040135	-300.409629	388.849001	757.839425	-441.352795	380.614663	672.267818	-424.946016	333.577385	597.398937	-431.327531	404.300165	665.838635	-393.822680	279.872267	464.833291	-439.376996	267.983689	461.817340	-352.170731	196.896641	436.441349	-406.778996	497.321719	436.662687	-392.166763	NaN	NaN	NaN	433.564988	397.697312	-459.275333	-182.254797	937.647939	-283.256568	-4.189584	85.578263	-483.982680	-15.823651	80.472559	-83.379383	
1502	7.5100	533.415560	1347.026044	-121.343679	522.269543	1367.807691	-398.441605	500.309136	1427.123478	-259.285304	473.403053	1287.289031	-250.254579	425.332828	1073.361813	31.832566	665.281068	944.080811	-75.197543	471.782781	1121.544284	-554.934773	685.279328	953.165567	-462.165990	-64.817321	1190.733471	-278.906110	93.050747	1214.669581	-431.481023	81.630655	1195.010931	-108.211695	131.709990	1170.968260	-382.670575	128.592563	1149.003891	-151.995891	-35.521971	1233.746264	-234.095491	-40.852694	1241.895339	-306.482953	32.220504	1137.775281	-97.017241	70.299184	1120.075579	-457.811318	135.430892	1008.343715	-71.713463	206.728792	955.704155	-69.542488	243.813187	878.730862	-66.036981	233.275474	977.074583	-84.740074	310.905995	749.148319	-79.509405	303.896618	733.486134	-194.363253	223.412198	652.237268	-65.356988	189.352201	574.617922	-87.482040	115.342073	529.914037	-104.520366	216.243273	557.334346	-108.682891	26.969234	407.441134	-124.392363	61.691949	404.349924	-205.377903	-41.144823	413.912500	-173.814081	200.321618	230.898156	-147.093654	126.876177	249.183636	-98.796643	139.128302	1055.598636	-457.005761	222.448310	1032.197552	-450.971113	239.909849	1063.031896	-441.071118	284.150848	968.476104	-444.779759	402.852878	864.885121	-411.235047	421.272497	840.662498	-301.079214	385.759269	746.885417	-441.348139	379.378606	661.580998	-424.937105	334.037813	585.770803	-430.783990	403.564412	655.663062	-394.135964	282.181728	452.021917	-439.239596	269.973922	449.369327	-352.956447	200.010430	422.324404	-406.964960	500.229154	428.051346	-391.983252	NaN	NaN	NaN	437.202629	387.869814	-459.055994	-182.264851	937.644814	-283.256048	-4.164911	85.568002	-483.923653	-15.825483	80.420878	-83.320827	
1503	7.5150	532.300881	1348.061546	-120.304332	521.750930	1368.349468	-398.166797	499.403420	1427.496448	-258.701628	473.305224	1287.239422	-250.148595	424.593018	1073.477469	31.565661	664.337753	943.450253	-75.796787	471.643792	1122.057344	-554.348098	685.370047	953.334326	-462.050952	-64.971540	1188.206929	-279.052949	92.785588	1212.185604	-431.903140	81.273408	1193.758349	-107.948789	132.150631	1169.700139	-382.597815	128.748515	1148.171404	-151.619267	-36.207287	1231.198801	-234.126320	-41.412319	1239.169767	-306.842237	33.078767	1136.658481	-96.766241	70.007163	1114.313255	-457.038649	138.626215	1009.901507	-72.573465	210.890159	958.598903	-70.019136	249.467124	882.462784	-65.767977	237.078040	980.301108	-85.061115	317.527144	753.582108	-78.524571	310.778823	737.442455	-193.288442	228.739246	658.439959	-64.583778	191.334070	581.193357	-87.420943	117.705718	538.740672	-103.974454	220.187300	564.115911	-107.841734	26.687565	418.451279	-124.223480	60.953275	415.361518	-205.120638	-41.312546	426.236963	-173.503794	196.839579	239.071184	-147.029808	123.760574	258.496656	-98.679174	138.788157	1049.458258	-457.027451	221.805291	1024.774758	-451.237425	239.779094	1055.382488	-441.680671	282.526025	960.153407	-444.756478	398.478122	854.914403	-412.034408	417.220409	831.176930	-301.585295	382.729850	736.940673	-441.523179	377.840170	651.318270	-425.312929	333.717298	574.769557	-430.996942	402.331988	645.782718	-394.754724	284.185584	439.590227	-439.158249	274.695130	437.453346	-350.132436	202.586857	408.331339	-406.605253	502.644032	419.120163	-391.797741	NaN	NaN	NaN	440.258090	377.966218	-458.935121	-182.274835	937.641732	-283.255360	-4.141638	85.591263	-483.910535	-15.811171	80.391102	-83.301342	
1504	7.5200	531.152900	1348.547258	-120.335354	521.029513	1368.726789	-397.790411	498.499206	1427.944626	-258.393397	473.194559	1287.174848	-250.026945	424.196939	1073.593327	31.317836	663.890826	943.121105	-76.347089	471.571782	1122.365162	-553.737184	685.572198	953.404266	-461.789171	-64.887933	1185.611510	-273.835916	92.493844	1209.771488	-432.337270	82.004035	1192.110551	-109.516687	132.821909	1168.380438	-382.891336	128.516141	1145.738109	-153.396393	-36.847938	1229.005827	-234.124603	-38.697913	1235.572631	-308.908486	34.052446	1135.237026	-96.471294	69.598249	1108.918268	-456.213724	141.570369	1011.169333	-73.027795	214.817286	961.179656	-70.146586	254.876454	885.947325	-65.422705	240.583975	983.453015	-84.983324	324.044707	757.843946	-77.712764	317.394384	741.250584	-192.390518	233.781352	664.703547	-63.882868	194.754525	588.332039	-86.852578	120.245638	547.405374	-103.568571	223.277745	570.636675	-107.336447	26.794451	429.416212	-124.166154	61.345515	425.267593	-205.157040	-41.224314	438.570841	-173.552772	193.977500	247.499075	-147.043259	121.264207	268.129656	-98.549218	138.426553	1043.668111	-457.312794	221.039216	1017.569692	-451.549858	239.547424	1047.993224	-442.250124	280.641205	952.028528	-444.845804	393.546481	845.774551	-412.961115	412.913869	822.354858	-302.096075	379.580211	727.187142	-441.794462	376.153287	641.248075	-426.009135	333.017998	564.156933	-431.605315	400.700231	636.036837	-395.392920	285.790350	427.580506	-439.405632	276.219099	424.671613	-348.817649	204.685029	395.142667	-406.880346	504.599963	409.776141	-391.635652	NaN	NaN	NaN	442.804798	367.789086	-458.717377	-182.284748	937.638694	-283.254507	-4.129888	85.584292	-483.874830	-15.804902	80.389349	-83.265356	
